# xmcd
#
# Track frame offsets: 
#        150
#        23929
#        37178
#        45028
#        52663
#        70720
#        84601
#        106235
#        128924
#        143056
#        164004
#        178399
#        194973
#        209590
#        227490
#        242383
#        259410
#
# Disc length: 3726 seconds
#
# Revision: 1
# Processed by: cddbd v1.5.2PL0 Copyright (c) Steve Scherf et al.
# Submitted via: ExactAudioCopy v0.99pb5
#
DISCID=f30e8c11
DTITLE=John Denver - Portrait disc1
DYEAR=2000
DGENRE=misc
TTITLE0=Sunshine On My Shouiders
TTITLE1=Season Suite: Summer
TTITLE2=Fall
TTITLE3=Winter
TTITLE4=Late Winter Early Spring (When Everybody Goes To Mexico)
TTITLE5=Spring
TTITLE6=Back Home Again
TTITLE7=All Of My Memories
TTITLE8=Rocky Mountain Suite (Cold Ningts In Canada)
TTITLE9=The Wild Country
TTITLE10=You're So Beautiful
TTITLE11=Spirit
TTITLE12=Wrangle Mountain Song
TTITLE13=Heart To Heart
TTITLE14=It's A Possibility
TTITLE15=In My Heart
TTITLE16=The Wings That Fly Us Home
EXTD=
EXTT0=
EXTT1=
EXTT2=
EXTT3=
EXTT4=
EXTT5=
EXTT6=
EXTT7=
EXTT8=
EXTT9=
EXTT10=
EXTT11=
EXTT12=
EXTT13=
EXTT14=
EXTT15=
EXTT16=
PLAYORDER=
